P3
# Created by GIMP version 2.10.18 PNM plug-in
10 10
255
0
0
0
169
169
169
169
169
169
169
169
169
169
169
169
169
169
169
169
169
169
169
169
169
169
169
169
0
0
0
169
169
169
255
255
255
255
255
255
255
255
255
255
255
255
255
255
255
255
255
255
255
255
255
255
255
255
169
169
169
169
169
169
255
255
255
255
255
255
255
255
255
255
255
255
255
255
255
255
255
255
255
255
255
255
255
255
169
169
169
169
169
169
255
255
255
255
255
255
255
255
255
255
255
255
255
255
255
255
255
255
255
255
255
255
255
255
169
169
169
169
169
169
255
255
255
255
255
255
255
255
255
255
255
255
255
255
255
255
255
255
255
255
255
255
255
255
169
169
169
169
169
169
255
255
255
255
255
255
255
255
255
255
255
255
205
66
66
255
255
255
255
255
255
255
255
255
169
169
169
169
169
169
255
255
255
255
255
255
255
255
255
255
255
255
68
66
205
255
255
255
255
255
255
255
255
255
169
169
169
169
169
169
255
255
255
255
255
255
255
255
255
255
255
255
68
66
205
255
255
255
255
255
255
255
255
255
169
169
169
169
169
169
255
255
255
255
255
255
255
255
255
255
255
255
255
255
255
255
255
255
255
255
255
255
255
255
169
169
169
0
0
0
169
169
169
169
169
169
169
169
169
169
169
169
169
169
169
169
169
169
169
169
169
169
169
169
0
0
0
